<svg width="354" height="57" viewBox="0 0 354 57" fill="none" xmlns="http://www.w3.org/2000/svg">
<path d="M339.386 55.1668C339.386 51.7005 337.386 50.4965 334.054 50.4965H308.989C297.223 50.4965 293.076 43.211 292.534 38.1916H327.332C337.484 38.1916 340.477 30.8806 340.477 26.174C340.477 21.1509 337.222 14.16 327.332 14.16H308.535C291.425 14.16 285.794 25.8102 285.794 35.2599C285.794 45.6407 292.203 56.3598 308.491 56.3598H339.386V55.1668ZM309.033 20.0233H326.474C332.49 20.0233 333.938 23.7697 333.938 26.174C333.938 28.3272 332.621 32.3246 326.474 32.3246H292.534C292.945 28.1417 296.455 20.0233 309.033 20.0233ZM238.08 53.6937C236.283 56.1452 235.05 57 233.479 57C231.297 57 230.46 55.8215 228.907 53.6973C225.124 48.5469 199.958 14.16 199.958 14.16H203.853C208.051 14.16 209.255 15.644 211.001 18.0737L233.646 49.9909L256.405 17.9137C258.009 15.6331 259.257 14.16 263.476 14.16H266.895L238.08 53.6937ZM73.0491 56.3598C70.4121 56.3598 68.7571 55.0577 68.2406 52.2424L67.3749 47.6594C65.9564 50.3001 60.6641 56.3598 49.2249 56.3598H36.0724C18.1697 56.3598 13.1211 44.2295 13.1211 35.2599C13.1211 25.1591 19.1881 14.16 36.0724 14.16H49.2249C62.0281 14.16 69.1609 21.6201 70.8704 30.7097C72.3035 38.3007 75.6643 56.3598 75.6643 56.3598H73.0491ZM47.7772 20.0233H36.5343C23.9057 20.0233 19.6064 28.0581 19.6064 35.2599C19.6064 42.5381 23.9057 50.4965 36.5343 50.4965H47.7772C60.966 50.4965 64.8107 42.1235 64.8107 35.2599C64.8107 29.1383 61.377 20.0233 47.7772 20.0233ZM275.337 9.32238C277.207 9.32238 278.654 8.16572 278.654 5.96516V4.57571C278.654 2.35333 277.188 1.21849 275.337 1.21849C273.497 1.21849 272.013 2.33514 272.013 4.57571V5.96516C272.013 8.18027 273.46 9.32238 275.337 9.32238ZM272.089 14.1563H273.635C276.647 14.1563 278.578 15.5094 278.578 19.6014V56.3598H276.963C273.66 56.3598 272.089 54.5739 272.089 51.0239V14.1563ZM85.5614 19.6414C88.3548 16.9971 93.3016 14.16 101.147 14.16H114.296C132.195 14.16 137.255 26.2903 137.255 35.2599C137.255 45.357 131.184 56.3598 114.296 56.3598H101.147C88.333 56.3598 79.0761 48.0814 79.0761 35.2635V0H81.0839C83.9501 0 85.5614 1.46947 85.5614 4.1647V19.6414ZM102.598 50.4965H113.834C126.466 50.4965 130.766 42.4581 130.766 35.2599C130.766 27.9817 126.466 20.0233 113.834 20.0233H102.598C89.4024 20.0233 85.5614 28.3891 85.5614 35.2599C85.5614 41.3815 88.9877 50.4965 102.598 50.4965ZM150.305 19.6414C153.106 16.9971 158.038 14.16 165.887 14.16H179.043C196.939 14.16 202.002 26.2903 202.002 35.2599C202.002 45.357 195.924 56.3598 179.043 56.3598H165.887C153.08 56.3598 143.82 48.0814 143.82 35.2635V0H145.828C148.69 0 150.305 1.46947 150.305 4.1647V19.6414ZM167.335 50.4965H178.582C191.203 50.4965 195.506 42.4581 195.506 35.2599C195.506 27.9817 191.21 20.0233 178.582 20.0233H167.335C154.146 20.0233 150.305 28.3891 150.305 35.2599C150.305 41.3815 153.735 50.4965 167.335 50.4965Z" fill="#1C2230"/>
</svg>
