<svg width="141" height="38" viewBox="0 0 141 38" fill="none" xmlns="http://www.w3.org/2000/svg">
<g clip-path="url(#clip0_569_627)">
<path d="M78.9021 26.2815C78.5532 27.0385 78.0804 27.6924 77.4827 28.2434C76.885 28.7944 76.19 29.2205 75.3997 29.5199C74.6085 29.8192 73.7715 29.9698 72.8878 29.9698C72.0156 29.9698 71.1815 29.8412 70.3845 29.5856C69.5885 29.3292 68.8888 28.9536 68.2844 28.4588C67.68 27.9641 67.1967 27.354 66.8373 26.6276C66.4751 25.9012 66.2949 25.068 66.2949 24.129C66.2949 23.2787 66.457 22.5208 66.7811 21.8564C67.1033 21.1939 67.5371 20.6171 68.0785 20.129C68.62 19.6419 69.2492 19.2378 69.9651 18.9184C70.681 18.599 71.4369 18.3512 72.2329 18.1767L77.8916 16.9365V14.8717C77.8916 14.1701 77.7887 13.5323 77.5837 12.9556C77.3778 12.3798 77.0689 11.885 76.659 11.4713C76.2472 11.0585 75.7343 10.7392 75.1176 10.5142C74.5018 10.2892 73.782 10.1758 72.9603 10.1758C72.0623 10.1758 71.3435 10.295 70.8021 10.5323C70.2606 10.7696 69.8183 11.0347 69.476 11.3283C69.1329 11.6219 68.8593 11.8879 68.6543 12.1253C68.4474 12.3625 68.2396 12.4818 68.028 12.4818C67.8192 12.4818 67.6352 12.4121 67.4799 12.2751C67.3235 12.1378 67.2454 11.9634 67.2454 11.7508C67.2454 11.5754 67.2949 11.4133 67.395 11.2627C67.4951 11.113 67.5952 10.9824 67.6953 10.8699C68.3674 10.0835 69.1662 9.51532 70.089 9.16643C71.0118 8.81847 71.967 8.64307 72.9517 8.64307C73.987 8.64307 74.9069 8.79761 75.7115 9.10347C76.5151 9.4095 77.1919 9.83849 77.741 10.3895C78.2901 10.9405 78.7077 11.5973 78.9946 12.3609C79.2815 13.1245 79.4245 13.9624 79.4245 14.8756V23.7565C79.4245 24.683 79.2501 25.5246 78.9021 26.2815ZM77.8917 18.521L72.4589 19.7584C71.7868 19.9089 71.1672 20.1149 70.6 20.377C70.0337 20.6391 69.5456 20.9519 69.1348 21.3142C68.7239 21.6764 68.4027 22.0958 68.1729 22.5706C67.9432 23.0453 67.8278 23.5639 67.8278 24.1263C67.8278 24.7888 67.9517 25.3847 68.2015 25.9166C68.4503 26.4476 68.7992 26.9004 69.2463 27.275C69.6944 27.6497 70.2301 27.9375 70.8526 28.1378C71.4751 28.3369 72.1529 28.4371 72.8879 28.4371C73.5971 28.4371 74.2568 28.3217 74.8669 28.091C75.477 27.8595 76.0061 27.5343 76.4541 27.1158C76.9021 26.6973 77.2539 26.2006 77.5084 25.6258C77.7639 25.051 77.8917 24.4256 77.8917 23.7507V18.521Z" fill="#1C2230"/>
<path d="M97.658 32.8879C97.2843 33.7487 96.7762 34.5009 96.1327 35.1453C95.4892 35.7878 94.7371 36.2969 93.8744 36.6725C93.0126 37.0471 92.0936 37.2349 91.1194 37.2349C90.6065 37.2349 90.0698 37.1814 89.5074 37.0766C88.9449 36.9688 88.392 36.8077 87.8487 36.5894C87.3043 36.3711 86.7981 36.0937 86.3301 35.7582C85.8611 35.4198 85.4712 35.027 85.1585 34.577C85.0832 34.4273 85.046 34.2892 85.046 34.1643C85.046 33.9516 85.127 33.7706 85.29 33.6209C85.4521 33.4712 85.6399 33.3958 85.8525 33.3958C86.0641 33.3958 86.2242 33.4644 86.3301 33.6017C86.4359 33.7398 86.5455 33.8772 86.658 34.0145C87.2576 34.5893 87.9449 35.0145 88.7199 35.289C89.495 35.5636 90.2948 35.7018 91.1194 35.7018C91.881 35.7018 92.6036 35.5551 93.2843 35.2614C93.9649 34.9668 94.556 34.5703 95.0555 34.0708C95.555 33.5712 95.9525 32.983 96.2461 32.3091C96.5397 31.6342 96.6865 30.9087 96.6865 30.1356V26.4797C96.0154 27.3024 95.208 27.9573 94.2642 28.4425C93.3195 28.9278 92.2824 29.1699 91.1527 29.1699C90.1832 29.1699 89.27 28.984 88.413 28.6084C87.556 28.2338 86.8067 27.7257 86.168 27.0822C85.5284 26.4387 85.0222 25.6866 84.6494 24.8248C84.2767 23.963 84.0898 23.046 84.0898 22.0717V15.741C84.0898 14.7677 84.2767 13.8506 84.6494 12.9879C85.0222 12.1271 85.5283 11.3749 86.169 10.7315C86.8077 10.088 87.5569 9.57987 88.4149 9.20524C89.2719 8.82965 90.1851 8.64282 91.1546 8.64282C92.1232 8.64282 93.0364 8.82979 93.8944 9.20524C94.7514 9.57987 95.5007 10.089 96.1403 10.7324C96.78 11.3759 97.2871 12.1281 97.6599 12.9908C98.0326 13.8525 98.2194 14.7696 98.2194 15.7438V30.1337C98.2194 31.107 98.0316 32.0242 97.658 32.8879ZM96.6865 15.74C96.6865 14.9784 96.5397 14.2576 96.248 13.577C95.9563 12.8954 95.5617 12.3063 95.066 11.8068C94.5693 11.3063 93.983 10.9097 93.3062 10.6161C92.6294 10.3225 91.9115 10.1757 91.1546 10.1757C90.3844 10.1757 89.6646 10.3224 88.9935 10.6161C88.3234 10.9097 87.739 11.3063 87.2433 11.8068C86.7466 12.3063 86.352 12.8954 86.0603 13.577C85.7686 14.2576 85.6227 14.9784 85.6227 15.74V22.0727C85.6227 22.8353 85.7686 23.5531 86.0603 24.2281C86.352 24.903 86.7466 25.4921 87.2433 25.9984C87.739 26.5045 88.3234 26.903 88.9935 27.1966C89.6646 27.4902 90.3844 27.637 91.1546 27.637C91.9115 27.637 92.6294 27.4903 93.3062 27.1966C93.983 26.903 94.5693 26.5045 95.066 25.9984C95.5617 25.4921 95.9563 24.903 96.248 24.2281C96.5397 23.5531 96.6865 22.8353 96.6865 22.0727V15.74Z" fill="#1C2230"/>
<path d="M104.542 4.78061C104.385 4.91221 104.208 4.97787 104.01 4.97787C103.822 4.97787 103.648 4.91221 103.485 4.78061C103.323 4.64901 103.243 4.45745 103.243 4.20768V1.1295C103.243 0.879814 103.323 0.691007 103.485 0.566137C103.648 0.441295 103.822 0.379395 104.01 0.379395C104.208 0.379395 104.385 0.441295 104.542 0.566137C104.698 0.69098 104.776 0.879733 104.776 1.1295V4.20768C104.776 4.45737 104.698 4.64907 104.542 4.78061ZM104.542 29.3734C104.385 29.505 104.208 29.5707 104.01 29.5707C103.822 29.5707 103.648 29.505 103.485 29.3734C103.323 29.2418 103.243 29.0522 103.243 28.8015V9.79488C103.243 9.54519 103.323 9.35447 103.485 9.2229C103.648 9.09238 103.822 9.02642 104.01 9.02642C104.208 9.02642 104.385 9.09211 104.542 9.2229C104.698 9.3545 104.776 9.54511 104.776 9.79488V28.8015C104.776 29.0522 104.698 29.2419 104.542 29.3734Z" fill="#1C2230"/>
<path d="M123.396 25.6339C123.023 26.4976 122.516 27.2478 121.877 27.8865C121.236 28.5243 120.488 29.0314 119.631 29.407C118.773 29.7817 117.86 29.9704 116.891 29.9704C115.921 29.9704 115.008 29.7816 114.151 29.407C113.293 29.0314 112.544 28.5243 111.904 27.8865C111.265 27.2478 110.758 26.4976 110.386 25.6339C110.013 24.7703 109.826 23.8504 109.826 22.8733V15.7589C109.826 14.7818 110.013 13.8628 110.386 12.9991C110.758 12.1354 111.265 11.3814 111.904 10.737C112.544 10.0925 113.293 9.58254 114.151 9.20598C115.008 8.83134 115.921 8.64258 116.891 8.64258C117.86 8.64258 118.773 8.83148 119.631 9.20598C120.488 9.58254 121.236 10.0925 121.877 10.737C122.516 11.3814 123.023 12.1354 123.396 12.9991C123.769 13.8628 123.956 14.7818 123.956 15.7589V22.8733C123.956 23.8504 123.769 24.7703 123.396 25.6339ZM122.423 15.7503C122.423 14.9867 122.276 14.2641 121.984 13.5825C121.693 12.9009 121.298 12.3099 120.802 11.8084C120.306 11.3089 119.719 10.9114 119.043 10.6178C118.366 10.3242 117.648 10.1764 116.891 10.1764C116.12 10.1764 115.401 10.3242 114.73 10.6178C114.06 10.9114 113.475 11.3089 112.98 11.8084C112.483 12.3099 112.088 12.9009 111.797 13.5825C111.505 14.2641 111.359 14.9867 111.359 15.7503V22.8627C111.359 23.6273 111.505 24.347 111.797 25.0219C112.088 25.6978 112.483 26.2888 112.98 26.795C113.475 27.3022 114.06 27.7035 114.73 27.9972C115.401 28.2908 116.12 28.4376 116.891 28.4376C117.648 28.4376 118.366 28.2908 119.043 27.9972C119.719 27.7035 120.306 27.3022 120.802 26.795C121.298 26.2888 121.693 25.6978 121.984 25.0219C122.276 24.347 122.423 23.6273 122.423 22.8627V15.7503Z" fill="#1C2230"/>
<path d="M140.643 24.2803C140.643 25.1449 140.462 25.9266 140.102 26.6273C139.742 27.3298 139.256 27.9275 138.641 28.4213C138.027 28.9161 137.316 29.2984 136.508 29.5672C135.702 29.835 134.846 29.9705 133.939 29.9705C133.479 29.9705 132.986 29.9191 132.459 29.8188C131.931 29.7167 131.415 29.5643 130.913 29.3556C130.41 29.1478 129.942 28.8865 129.507 28.572C129.072 28.2574 128.719 27.8875 128.446 27.4623C128.313 27.3375 128.246 27.2002 128.246 27.0505C128.246 26.8378 128.326 26.6568 128.488 26.5071C128.648 26.3566 128.834 26.282 129.046 26.282C129.257 26.282 129.415 26.3439 129.52 26.469C129.625 26.5939 129.733 26.7255 129.846 26.8627C130.368 27.4004 130.991 27.797 131.713 28.0534C132.436 28.3087 133.17 28.4376 133.917 28.4376C134.689 28.4376 135.392 28.3278 136.028 28.1096C136.663 27.8905 137.21 27.5929 137.671 27.2183C138.132 26.8427 138.487 26.4013 138.736 25.8951C138.985 25.3889 139.11 24.8475 139.11 24.2717C139.11 23.5472 138.956 22.9304 138.652 22.4242C138.347 21.918 137.944 21.4805 137.44 21.1116C136.935 20.7426 136.36 20.4233 135.713 20.1545C135.066 19.8856 134.41 19.6187 133.745 19.3565C133.078 19.0944 132.422 18.8122 131.775 18.5119C131.129 18.2126 130.554 17.8494 130.05 17.4243C129.545 16.9991 129.141 16.492 128.836 15.9047C128.531 15.3175 128.38 14.5978 128.38 13.7465C128.38 12.9086 128.544 12.1736 128.874 11.5425C129.203 10.9114 129.643 10.3795 130.191 9.94766C130.738 9.51677 131.358 9.19074 132.05 8.97243C132.74 8.75328 133.452 8.64355 134.187 8.64355C134.698 8.64355 135.218 8.70843 135.748 8.84003C136.277 8.97163 136.787 9.15745 137.278 9.40055C137.769 9.64375 138.225 9.94008 138.643 10.2899C139.058 10.6398 139.412 11.0326 139.699 11.4692C139.799 11.6321 139.849 11.7752 139.849 11.901C139.849 12.1126 139.762 12.2947 139.586 12.4444C139.412 12.5941 139.231 12.6695 139.043 12.6695C138.807 12.6695 138.636 12.5971 138.531 12.4541C138.424 12.3101 138.303 12.1634 138.167 12.0137C137.669 11.4389 137.08 10.9889 136.397 10.6638C135.714 10.3388 134.981 10.1767 134.198 10.1767C133.602 10.1767 133.043 10.2586 132.521 10.4207C131.999 10.5837 131.546 10.822 131.161 11.1347C130.776 11.4474 130.47 11.8239 130.248 12.2615C130.024 12.6991 129.912 13.1938 129.912 13.7439C129.912 14.3959 130.064 14.9469 130.368 15.3978C130.672 15.8487 131.076 16.2434 131.58 16.5808C132.083 16.9193 132.658 17.2167 133.303 17.4731C133.949 17.7296 134.606 17.9898 135.278 18.252C135.949 18.5141 136.604 18.8096 137.242 19.1337C137.882 19.4597 138.454 19.8516 138.956 20.3091C139.46 20.7658 139.867 21.3139 140.177 21.9516C140.487 22.5904 140.643 23.3661 140.643 24.2803Z" fill="#1C2230"/>
<path d="M106.298 2.69391C106.298 3.98466 105.251 5.03045 103.962 5.03045C102.671 5.03045 101.625 3.98466 101.625 2.69391C101.625 1.40317 102.671 0.357422 103.962 0.357422C105.251 0.357422 106.298 1.40317 106.298 2.69391Z" fill="#1C2230"/>
<path d="M20.2658 18.5382L19.5308 18.1016L18.7959 17.7203L18.5613 17.6079L18.3049 17.7757L17.4889 18.2943L16.7253 18.7567L15.9627 19.219L15.1734 19.6013L14.4374 20.0083L13.7025 20.3353L12.9665 20.6632L12.2315 20.9349L11.5232 21.2075L10.8159 21.4259L10.1343 21.6166L9.42602 21.7796L8.77207 21.9158L8.09142 21.9968L7.43842 22.0787L6.78447 22.1057L6.15816 22.1333L5.53185 22.079L4.93224 22.052L4.30593 21.9422L3.70631 21.8336L3.13434 21.6707L2.56237 21.5067L1.96466 21.2883L1.41938 21.0719L0.875054 20.7716L0.357422 20.4989L0.84741 20.9346L1.36409 21.3703L1.90841 21.7239L2.48134 22.0786L3.02567 22.3779L3.59764 22.6782L4.19725 22.8965L4.79592 23.1138L5.39553 23.2767L6.02184 23.4132L6.64815 23.495L7.3021 23.5761H7.95606H8.6367L9.2897 23.5218L9.99799 23.4683L10.6786 23.331L11.4146 23.1681L12.1219 22.9773L12.8578 22.7601L13.6205 22.4874L14.3841 22.2148L15.1457 21.8611L15.936 21.5065L16.7253 21.0985L17.5423 20.6628L18.3593 20.1719L19.2048 19.6819L20.0208 19.1089L20.5918 18.7353L20.2658 18.5382Z" fill="#1C2230"/>
<path d="M21.0017 16.2506L21.792 16.7129L22.5537 17.2039L22.6719 17.2782L23.5346 16.6043L24.4335 16.0056L25.3325 15.4327L26.2305 14.916L27.1294 14.4527L28.056 14.017L28.9817 13.6357L29.9083 13.3087L30.8339 13.0084L31.7595 12.7644L32.7138 12.5461L33.6671 12.3831L34.5917 12.2745L35.545 12.1916H36.526H37.5069L38.4602 12.2469L39.4411 12.3548L40.4211 12.5188L41.4287 12.7093L42.4087 12.9277L43.4163 13.2279L44.4249 13.5539L45.4325 13.9353L46.4401 14.3433L47.4477 14.8075L48.483 15.2966L49.5183 15.8695L50.5516 16.4415L51.6145 17.0954L52.6498 17.7751L53.7118 18.511L52.5955 17.6121L51.5068 16.7675L50.4172 16.0058L49.3276 15.2698L48.238 14.5892L47.1751 13.9619L46.1131 13.3633L45.0788 12.8456L44.0436 12.328L43.0083 11.8923L41.973 11.5101L40.9654 11.185L39.9311 10.8857L38.9502 10.6674L37.9692 10.4769L36.9893 10.3404L36.0083 10.2318L35.0283 10.2031H34.0741L33.1218 10.2585L32.1961 10.3671L31.2695 10.5312L30.343 10.7209L29.4173 10.9945L28.5184 11.2928L27.6204 11.6484L26.7205 12.0288L25.8501 12.4911L24.9512 13.0087L24.1066 13.554L23.262 14.1536L22.4183 14.8076L21.5737 15.4606L20.7291 16.0869L20.7119 16.1004L21.0017 16.2506Z" fill="#1C2230"/>
<path d="M58.2876 21.5064L59.1046 20.7171L59.9492 19.9001L59.1046 20.5808L58.2876 21.2614L57.77 21.6427L57.28 22.024L56.299 22.7323L55.8091 23.0593L55.3191 23.3853L54.8291 23.6856L54.3381 23.9849L53.8482 24.2576L53.3572 24.5293L52.4049 25.0479L51.9139 25.2938L51.4516 25.5102L50.4974 25.9459L50.035 26.1088L49.545 26.3004L48.6194 26.5997L47.6661 26.8724L47.2019 26.981L46.7395 27.0907L46.2486 27.1718L45.7862 27.2537L44.8873 27.3899L44.3973 27.4174L43.9607 27.4709H43.4983L43.035 27.4985L42.5717 27.4709H42.1094L41.6461 27.4174L41.2105 27.3899L40.3125 27.2537L39.8482 27.1718L39.4126 27.0907L38.9769 26.981L38.5146 26.8724L38.078 26.7359L37.6433 26.5997L36.771 26.2727L36.3077 26.1087L35.8997 25.9182L35.0008 25.5102L34.5651 25.2662L34.1561 25.0479L33.2848 24.5293L32.8492 24.2576L32.4402 23.9849L31.5689 23.3587L31.1333 23.0316L30.7243 22.7047L29.8807 21.9974L29.445 21.616L29.0361 21.2614L28.1648 20.4445L27.2925 19.6818L26.4212 18.9459L25.6042 18.2938L24.7596 17.6666L23.9427 17.067L23.1257 16.5493L22.3364 16.0594L21.5461 15.597L20.7835 15.188L20.0208 14.8077L19.2582 14.5064L18.5223 14.2081L17.8149 13.9897L17.1067 13.7989L16.3984 13.6625L15.691 13.5527L15.0371 13.4984L14.3564 13.4714L13.7025 13.4984L13.0485 13.5803L12.4222 13.6901L11.7959 13.853L11.1963 14.0713L10.5976 14.2897L10.0256 14.6157L9.42604 14.9427L8.88171 15.323L8.30974 15.7596L7.79211 16.2229L7.24778 16.7406L6.75684 17.2858L7.27447 16.9026L7.81975 16.5766L8.39077 16.2772L8.96369 16.0321L9.53471 15.7863L10.1343 15.6241L10.733 15.4601L11.3326 15.3782L11.9589 15.2964L12.5585 15.2693H13.2125L13.8655 15.3226L14.4927 15.4055L15.1734 15.5409L15.8273 15.6771L16.5347 15.8954L17.2153 16.1137L17.9236 16.4131L18.6319 16.7124L19.3669 17.0661L20.1028 17.4484L20.8388 17.884L21.5737 18.3463L22.3631 18.865L23.1257 19.4083L23.916 19.9813L24.7053 20.6066L25.4956 21.2606L26.3125 21.9412L27.1295 22.6771L27.9741 23.4674L28.8187 24.2844L29.608 25.0193L30.017 25.373L30.425 25.7276L31.242 26.354L32.0589 26.9526L32.4679 27.2262L32.8759 27.4979L33.3125 27.7419L33.7472 27.9602L34.5918 28.3959L35.4364 28.7782L35.873 28.9411L36.3077 29.1051L36.7167 29.2405L37.18 29.3767L38.0513 29.595L38.4869 29.6769L38.9226 29.7312L39.3849 29.7856L39.8215 29.8409L40.2848 29.8679L40.7472 29.895H41.6461L42.1094 29.8679L42.5717 29.8409L43.0084 29.7856L43.4716 29.7312L44.424 29.5396L44.8873 29.431L45.3506 29.3224L45.8139 29.1859L46.3039 29.0497L47.2571 28.7227L48.2095 28.3147L48.7004 28.1232L49.1904 27.8799L49.6813 27.6608L50.1704 27.4168L51.1513 26.8448L52.1589 26.2452L52.6499 25.9173L53.1399 25.5903L54.1751 24.8839L55.1818 24.1204L56.1894 23.3043L57.2247 22.4321L58.2876 21.5064Z" fill="#1C2230"/>
</g>
<defs>
<clipPath id="clip0_569_627">
<rect width="141" height="37.5925" fill="white"/>
</clipPath>
</defs>
</svg>
