<svg width="208" height="27" viewBox="0 0 208 27" fill="none" xmlns="http://www.w3.org/2000/svg">
<path d="M9.46039 15.1919C11.463 15.1919 13.1203 14.3977 14.3632 12.8095L16.9873 15.5026C14.9157 17.8505 12.4642 19.0244 9.66756 19.0244C6.83634 19.0244 4.52304 18.1267 2.72763 16.3313C0.897702 14.5359 0 12.2916 0 9.56397C0 6.83634 0.932228 4.55756 2.79669 2.76216C4.66114 0.932229 6.9054 0.0345186 9.5985 0.0345186C12.6024 0.0345186 15.1228 1.17391 17.1254 3.48722L14.6049 6.38749C13.3274 4.76472 11.7046 3.9706 9.80566 3.9706C8.28648 3.9706 6.97445 4.48851 5.86959 5.48979C4.76472 6.49107 4.24682 7.83762 4.24682 9.56397C4.24682 11.2558 4.76472 12.6369 5.80053 13.6727C6.76729 14.7085 8.01026 15.1919 9.46039 15.1919ZM20.1292 0.483376H24.2034V18.8172H20.1292V0.483376ZM36.1843 4.00512V18.8172H32.1101V4.00512H26.9311V0.448847H41.3633V4.00512H36.1843ZM53.3097 18.8172H49.2355V11.5665L42.917 0.483376H47.3365L51.2726 7.31972L55.2087 0.483376H59.6281L53.3097 11.6011V18.8172ZM78.5144 8.97702C78.5144 10.1855 78.3072 11.2903 77.8584 12.2916C77.4095 13.2929 76.8226 14.0525 76.063 14.6049C75.3034 15.1228 74.4057 15.399 73.4044 15.399C72.265 15.399 71.3328 15.0538 70.6422 14.3632C69.9517 13.6727 69.6064 12.7405 69.6064 11.532C69.6064 10.3236 69.8136 9.2187 70.2624 8.21742C70.6767 7.21614 71.2982 6.42202 72.0578 5.86959C72.8174 5.31716 73.7151 5.04093 74.7509 5.04093C75.9248 5.04093 76.8571 5.3862 77.5131 6.07674C78.1691 6.80181 78.5144 7.76857 78.5144 8.97702ZM76.3737 8.87343C76.3737 8.21742 76.2356 7.73404 75.9249 7.35425C75.6141 6.97445 75.1998 6.80181 74.6473 6.80181C74.0949 6.80181 73.577 7.00897 73.1282 7.45782C72.6793 7.90667 72.334 8.45911 72.0924 9.2187C71.8507 9.97829 71.7126 10.7724 71.7126 11.6011C71.7126 12.2571 71.8507 12.775 72.1614 13.1548C72.4721 13.5 72.8865 13.6727 73.4734 13.6727C74.0259 13.6727 74.5092 13.4655 74.9236 13.0512C75.3724 12.6369 75.6832 12.0499 75.9249 11.3248C76.2356 10.5998 76.3737 9.77113 76.3737 8.87343ZM78.2382 19.6804C77.6857 19.6804 77.2369 19.6113 76.8916 19.4732V17.7469C77.2714 17.8505 77.6167 17.9195 77.9274 17.9195C78.7215 17.9195 79.274 17.298 79.5157 16.0551L81.4837 6.80181H79.8609L80.0681 5.83506L81.829 5.14452L82.0016 4.31587C82.2778 3.10743 82.6576 2.27877 83.21 1.76087C83.7625 1.24296 84.5221 1.00128 85.5234 1.00128C86.2139 1.00128 86.8354 1.13939 87.4223 1.38108L86.8699 2.96931C86.4901 2.79668 86.0758 2.72763 85.6269 2.72763C85.2126 2.72763 84.8673 2.86574 84.6256 3.10743C84.384 3.38365 84.1768 3.79796 84.0387 4.38492L83.8661 5.14452H85.9377L85.5924 6.76728H83.5208L81.5182 16.2967C81.2765 17.4361 80.8967 18.2648 80.3443 18.8172C79.8264 19.4387 79.1013 19.6804 78.2382 19.6804ZM104.513 18.8172H96.5029V0.483376H103.615C104.858 0.483376 105.929 0.62148 106.827 0.932222C107.724 1.24297 108.415 1.62276 108.864 2.14067C109.692 3.0729 110.107 4.14324 110.107 5.35168C110.107 6.80182 109.658 7.87215 108.725 8.56269C108.415 8.80438 108.208 8.97701 108.069 9.01154C107.931 9.08059 107.724 9.18418 107.413 9.32229C108.553 9.56398 109.451 10.0819 110.107 10.8415C110.763 11.6011 111.108 12.6023 111.108 13.7417C111.108 15.0192 110.659 16.1586 109.796 17.1254C108.795 18.2648 107.034 18.8172 104.513 18.8172ZM100.612 7.90668H102.545C103.685 7.90668 104.513 7.76857 105.066 7.52688C105.618 7.28519 105.894 6.76728 105.894 5.93864C105.894 5.10999 105.653 4.59209 105.135 4.31587C104.617 4.03966 103.788 3.93607 102.58 3.93607H100.612V7.90668ZM100.612 15.3645H103.408C104.582 15.3645 105.445 15.2264 106.032 14.9157C106.619 14.6394 106.896 14.0525 106.896 13.2238C106.896 12.3607 106.585 11.8082 105.963 11.532C105.342 11.2558 104.341 11.1177 102.994 11.1177H100.577V15.3645H100.612ZM129.821 16.2967C127.992 18.0921 125.713 19.0244 122.985 19.0244C120.292 19.0244 118.013 18.1267 116.149 16.2967C114.284 14.5013 113.387 12.2225 113.387 9.52944C113.387 6.83634 114.319 4.59209 116.149 2.76216C118.013 0.966756 120.257 0.0345186 122.985 0.0345186C125.678 0.0345186 127.957 0.932229 129.821 2.76216C131.686 4.55756 132.584 6.83634 132.584 9.52944C132.584 12.2225 131.651 14.4668 129.821 16.2967ZM128.44 9.56397C128.44 7.9412 127.922 6.52559 126.887 5.3862C125.851 4.24681 124.539 3.65985 123.02 3.65985C121.5 3.65985 120.223 4.24681 119.153 5.3862C118.117 6.52559 117.599 7.9412 117.599 9.56397C117.599 11.1867 118.117 12.6023 119.153 13.7417C120.188 14.8811 121.466 15.4681 123.02 15.4681C124.539 15.4681 125.816 14.8811 126.887 13.7417C127.922 12.5678 128.44 11.1867 128.44 9.56397ZM140.145 4.14324C139.765 4.45398 139.558 4.90283 139.558 5.42073C139.558 5.93864 139.8 6.38749 140.283 6.69823C140.767 7.00898 141.871 7.38877 143.598 7.80309C145.324 8.21742 146.671 8.87343 147.637 9.73661C148.604 10.5998 149.088 11.8427 149.088 13.5C149.088 15.1573 148.466 16.4694 147.258 17.5052C146.015 18.541 144.426 19.0244 142.389 19.0244C139.489 19.0244 136.9 17.954 134.586 15.7788L137.003 12.775C138.971 14.5013 140.801 15.3645 142.458 15.3645C143.218 15.3645 143.805 15.1919 144.219 14.8811C144.634 14.5704 144.875 14.1215 144.875 13.5691C144.875 13.0167 144.634 12.5678 144.185 12.2571C143.736 11.9463 142.838 11.6011 141.492 11.2558C139.351 10.7379 137.797 10.0819 136.83 9.28776C135.829 8.45911 135.346 7.18161 135.346 5.45526C135.346 3.72891 135.967 2.38235 137.21 1.4156C138.453 0.483369 140.007 0 141.871 0C143.08 0 144.323 0.207158 145.531 0.621482C146.74 1.03581 147.81 1.62277 148.708 2.41689L146.636 5.42073C145.048 4.21229 143.425 3.62533 141.733 3.62533C141.077 3.65986 140.525 3.79797 140.145 4.14324ZM160.412 4.00512V18.8172H156.338V4.00512H151.159V0.448847H165.591V4.00512H160.412ZM183.442 16.2967C181.577 18.0921 179.333 19.0244 176.606 19.0244C173.878 19.0244 171.634 18.1267 169.769 16.2967C167.905 14.5013 167.007 12.2225 167.007 9.52944C167.007 6.83634 167.939 4.59209 169.769 2.76216C171.599 0.966756 173.878 0.0345186 176.606 0.0345186C179.299 0.0345186 181.577 0.932229 183.442 2.76216C185.306 4.55756 186.204 6.83634 186.204 9.52944C186.239 12.2225 185.306 14.4668 183.442 16.2967ZM182.061 9.56397C182.061 7.9412 181.543 6.52559 180.507 5.3862C179.471 4.24681 178.159 3.65985 176.64 3.65985C175.121 3.65985 173.843 4.24681 172.773 5.3862C171.737 6.52559 171.219 7.9412 171.219 9.56397C171.219 11.1867 171.737 12.6023 172.773 13.7417C173.809 14.8811 175.086 15.4681 176.64 15.4681C178.159 15.4681 179.437 14.8811 180.507 13.7417C181.543 12.5678 182.061 11.1867 182.061 9.56397ZM202.535 0.483376H206.609V18.8172H202.535L193.8 7.31972V18.8172H189.726V0.483376H193.524L202.501 12.2916L202.535 0.483376Z" fill="#1C2230"/>
<path d="M95.8467 22.9258H207.162V27H95.8467V22.9258Z" fill="#1C2230"/>
</svg>
