<svg width="100" height="30" viewBox="0 0 100 30" fill="none" xmlns="http://www.w3.org/2000/svg">
<g clip-path="url(#clip0_569_644)">
<path d="M64.615 19.3939V22.6454C64.615 26.7074 61.3224 30 57.2604 30H36.1822V23.8308H56.8907C57.8251 23.8308 58.5828 23.0731 58.5828 22.1388V19.5695C58.5828 18.6352 57.8251 17.8775 56.8907 17.8775H41.8361C37.9362 17.8775 34.5908 15.5593 34.5908 11.9145V11.5041C34.5908 8.57827 36.9627 6.20641 39.8886 6.20641H40.1203C40.3076 6.20641 40.459 6.05497 40.459 5.86771V4.11277C40.459 1.84155 42.3006 0 44.5718 0H62.0965V6.20738H41.688C41.1001 6.20738 40.6235 6.68398 40.6235 7.27186V10.3942C40.6235 11.3029 41.36 12.0393 42.2686 12.0393H57.2599C61.3219 12.0393 64.6145 15.3319 64.6145 19.3939H64.615Z" fill="#1C2230"/>
<path d="M30.0593 12.0395V19.4633C30.0593 21.8753 28.0677 23.831 24.6236 23.831H24.5839C24.3967 23.831 24.2452 23.9825 24.2452 24.1697V25.8874C24.2452 28.1586 22.4037 30.0002 20.1325 30.0002H7.37902C3.31705 30.0002 0.0244141 26.7075 0.0244141 22.6456V7.37462C0.0244141 3.31266 3.31705 0.0200195 7.37902 0.0200195H24.0957V6.18869H7.95964C6.99774 6.18869 6.21776 6.96867 6.21776 7.93057V22.0891C6.21776 23.0511 6.99774 23.831 7.95964 23.831H22.9466C23.6148 23.831 24.1562 23.2896 24.1562 22.6214V17.8782H21.6634C19.4986 17.8782 17.7442 16.1237 17.7442 13.9589V12.0395H30.0593Z" fill="#1C2230"/>
<path d="M84.2414 15.0005L99.6202 30H91.1663L77.5874 16.7946L76.5612 15.7964C76.2873 15.5298 75.8281 15.7239 75.8281 16.1061V30H69.6348V21.0869C69.6348 17.2964 72.9526 15.7868 75.413 15.1882C75.577 15.1486 75.577 14.9148 75.413 14.8747C72.9526 14.2757 69.6348 12.766 69.6348 8.97553V0.000976562H75.8281V13.9128C75.8281 14.2945 76.2873 14.4886 76.5612 14.2225L77.5802 13.233L91.2012 0.000976562H99.7083L84.2414 15.0005Z" fill="#1C2230"/>
</g>
<defs>
<clipPath id="clip0_569_644">
<rect width="99.734" height="30" fill="white"/>
</clipPath>
</defs>
</svg>
