<svg width="66" height="33" viewBox="0 0 66 33" fill="none" xmlns="http://www.w3.org/2000/svg">
<path d="M13.3531 15.199L21.9826 9.02915C23.7335 7.77849 25.012 6.72239 25.8179 5.86083C26.6239 4.97147 27.0269 4.26277 27.0269 3.73472C27.0269 2.95653 26.0959 2.56744 24.2338 2.56744L24.6507 0.899902H36.4902L36.0733 2.56744C35.6286 2.56744 35.17 2.66471 34.6976 2.85926C34.2251 3.05381 33.572 3.41511 32.7382 3.94316C31.9322 4.47121 30.8622 5.2216 29.5282 6.19434C28.1942 7.16706 26.4294 8.41772 24.2338 9.94629L17.8138 14.4486L25.9847 25.2043C27.0964 26.6773 27.9857 27.8306 28.6528 28.6644C29.3476 29.4982 29.9312 30.1096 30.4037 30.4987C30.9039 30.8878 31.3625 31.124 31.7794 31.2074C32.1562 31.2398 32.4751 31.2478 32.8131 31.2074C33.3728 31.1405 33.9852 30.941 35 30.5L32.7799 33H19.6897L20.1483 31.3325C21.121 31.3325 21.8714 31.263 22.3995 31.124C22.9553 30.9573 23.2333 30.6377 23.2333 30.1652C23.2333 29.7761 23.0387 29.2341 22.6496 28.5393C22.2605 27.8167 21.663 26.8996 20.857 25.7879L14.2702 16.9499L12.6027 18.1172L10.5183 25.9963C10.1848 27.2192 10.018 28.1919 10.018 28.9145C10.018 29.8595 10.3376 30.4987 10.9769 30.8322C11.6439 31.1657 12.7417 31.3325 14.2702 31.3325L13.7283 33H0.429688L0.88826 31.3325C1.66644 31.3325 2.31956 31.2769 2.84762 31.1657C3.37567 31.0267 3.83424 30.7766 4.22334 30.4153C4.64022 30.054 4.98762 29.5538 5.26555 28.9145C5.54347 28.2753 5.82139 27.4415 6.09932 26.4132L10.9769 7.98694C11.3937 6.45836 11.6022 5.31888 11.6022 4.56849C11.6022 3.70692 11.2826 3.16497 10.6434 2.94264C10.0319 2.69251 8.97582 2.56744 7.47503 2.56744L7.93361 0.899902H21.4823L21.0238 2.56744C20.1066 2.56744 19.3423 2.66471 18.7309 2.85926C18.1195 3.02601 17.5914 3.35952 17.1467 3.85978C16.7021 4.36004 16.2991 5.05485 15.9378 5.9442C15.6043 6.83356 15.2569 7.98694 14.8956 9.40434L13.3531 15.199Z" fill="#599E4F"/>
<path d="M64.5614 33H35.6297V32.8332L57.5578 2.65082H46.1351C44.1619 2.65082 43.6685 2.65082 42.1685 2.65082C40.6685 2.65082 41.1584 2.65082 38.7009 2.65082H35.1445L35.1456 0.899902H64.1446V1.06666L42.4249 31.0823H55.3483C56.7657 31.0823 57.933 30.9851 58.8501 30.7905C59.7673 30.5682 60.5038 30.1652 61.0596 29.5815C61.6432 28.9979 62.0879 28.2058 62.3936 27.2053C62.7271 26.177 63.019 24.843 63.2691 23.2032H65.0617L64.5614 33Z" fill="#599E4F"/>
</svg>
