<svg width="165" height="27" viewBox="0 0 165 27" fill="none" xmlns="http://www.w3.org/2000/svg">
<g clip-path="url(#clip0_569_648)">
<path d="M16.4883 12.0933L16.4184 12.2613C17.5381 12.7512 20.0435 14.6968 20.0435 18.6299C20.0435 22.3251 16.9222 26.0482 12.0373 26.0482C5.94868 26.0482 3.84914 22.493 3.84914 19.2177C3.84914 15.0187 6.7745 12.2333 6.7745 8.41215C6.7465 5.64076 4.80093 3.24729 2.07154 2.65942L1.97356 2.82739C2.93935 3.76518 3.48523 5.05289 3.47123 6.41059C3.47123 10.5397 0 13.465 0 18.196C0 22.549 3.05132 27 11.8694 27C19.7356 27 23.8787 23.1509 23.8787 19.0498C23.8787 15.5366 21.3593 12.5552 16.4883 12.0933Z" fill="#1C2230"/>
<path d="M51.047 26.3002L40.5913 12.8212V24.9705L42.7189 25.4743V26.0342H37.8619V25.4743L39.5975 24.9705V11.7294C39.1776 11.3375 38.6598 11.0435 38.1139 10.8756C37.9039 10.8336 37.624 10.7776 37.624 10.7776V10.2177H41.7531L50.6831 21.8351V11.3095L48.5556 10.7916V10.2317H53.4125V10.7916L51.6769 11.3095V23.3608C51.6769 24.4806 51.7608 26.1042 51.7748 26.3142L51.047 26.3002ZM72.9102 17.7061C72.9102 23.2908 69.005 26.5241 64.736 26.5241C60.4669 26.5241 56.5478 23.2488 56.5478 18.14C56.5478 13.0311 60.4529 9.72784 64.708 9.72784C69.103 9.58787 72.7702 13.0311 72.9241 17.4121C72.9101 17.5241 72.9102 17.6221 72.9102 17.7061ZM70.1808 18.5459C70.1808 14.4448 67.7313 10.4557 64.386 10.4557C60.8308 10.4557 59.2352 13.8849 59.2352 17.5661C59.2352 21.2473 61.2647 25.7963 65.0719 25.7963C68.6691 25.7963 70.1808 22.1711 70.1808 18.5459ZM76.2834 11.2955L74.6038 10.7776V10.2177H81.0143V10.7776L78.9988 11.2955L83.4218 23.3608L87.8448 11.2955L85.8573 10.7776V10.2177H90.6022V10.7776L88.9226 11.2955L83.3798 26.3421H81.9661L76.2834 11.2955ZM114.187 17.958H113.165V11.0575C116.51 11.0575 118.512 11.8274 118.512 14.5568C118.498 16.5863 116.748 17.958 114.187 17.958ZM142.881 25.4743L145.12 24.9705V11.2955L142.881 10.7776V10.2177H149.837V10.7776L147.598 11.2955V24.9705L149.837 25.4743V26.0342H142.881V25.4743ZM154.106 21.6952H154.54L156.024 25.0964C156.905 25.5443 157.871 25.7823 158.851 25.7963C160.769 25.7963 162.518 24.6765 162.518 22.675C162.518 21.1633 161.538 20.2535 159.943 19.4137L158.375 18.6019C156.5 17.6221 154.61 16.2364 154.61 14.0109C154.61 11.5894 156.29 9.71384 159.873 9.71384C161.133 9.72784 162.378 9.93779 163.582 10.3157L163.96 13.9829H163.484L162.112 11.0435C161.398 10.6516 160.601 10.4417 159.789 10.4417C157.969 10.4417 156.738 11.5614 156.738 13.1011C156.738 14.5008 157.675 15.3826 159.271 16.2084L161.133 17.1742C163.68 18.4899 164.884 19.7076 164.884 21.9751C164.884 24.7605 162.266 26.4961 159.005 26.4961C157.479 26.5241 155.954 26.2862 154.484 25.8243L154.106 21.6952ZM89.5804 25.4743L91.372 24.9705L96.9008 10.2177L98.7484 9.74184L104.459 24.9705L106.251 25.4883V26.0482H99.4762V25.4883L101.772 24.9705L100.148 20.5894H94.0594L92.4498 24.9705L94.7593 25.4743V26.0342H89.5804V25.4743ZM94.4933 19.4137H99.7562L97.1388 12.3593L94.4933 19.4137ZM117.378 18.3079C117.938 18.168 121.073 17.3701 121.073 14.4028C121.073 12.0233 119.254 10.1757 114.747 10.1757C111.961 10.1757 109.162 10.2317 108.812 10.2457V10.8056L110.646 11.3235V24.9844L108.812 25.5023V26.0622H115.307V25.5023L113.179 24.9844V18.8118H115.013L119.702 26.0622H123.873V25.5023L121.773 24.9425L117.378 18.3079ZM131.095 11.0435V24.9705L128.856 25.4743V26.0342H135.812V25.4743L133.573 24.9705V11.0575H137.324L138.57 13.7309H139.045L138.71 10.2457H125.972L125.622 13.717H126.098L127.33 11.0715L131.095 11.0435ZM11.9817 21.0933L14.2072 0H9.57422L11.8137 21.0933H11.9817Z" fill="#1C2230"/>
</g>
<defs>
<clipPath id="clip0_569_648">
<rect width="164.897" height="27" fill="white"/>
</clipPath>
</defs>
</svg>
