<svg width="160" height="41" viewBox="0 0 160 41" fill="none" xmlns="http://www.w3.org/2000/svg">
<path d="M55.212 30V10.4H59.272L67.672 23.812H67.84V10.4H71.452V30H67.364L59.02 16.588H58.852V30H55.212ZM82.6599 30.364C78.0399 30.364 74.8199 27.032 74.8199 22.636C74.8199 18.268 78.0119 14.908 82.6599 14.908C87.2799 14.908 90.4999 18.268 90.4999 22.636C90.4999 27.004 87.2519 30.364 82.6599 30.364ZM82.6599 27.06C85.0679 27.06 86.8039 25.212 86.8039 22.636C86.8039 20.088 85.0679 18.212 82.6599 18.212C80.2239 18.212 78.5159 20.088 78.5159 22.636C78.5159 25.24 80.2519 27.06 82.6599 27.06ZM95.8238 30L91.7078 15.272H95.5438L98.0078 25.632H98.2038L101.368 15.272H105.036L108.172 25.632H108.368L110.86 15.272H114.696L110.552 30H106.408L103.3 20.06H103.132L99.9678 30H95.8238ZM122.27 30.364C118.294 30.364 116.306 28.488 116.166 25.576H119.526C119.666 26.836 120.674 27.508 122.326 27.508C124.006 27.508 124.958 26.78 124.958 25.744C124.958 22.608 116.502 25.576 116.502 19.416C116.502 16.924 118.658 14.908 122.298 14.908C125.49 14.908 127.87 16.532 128.094 19.472H124.874C124.706 18.408 123.866 17.708 122.27 17.708C120.786 17.708 119.834 18.352 119.834 19.304C119.834 22.104 128.486 19.164 128.486 25.548C128.486 28.348 126.218 30.364 122.27 30.364ZM138.237 30C135.185 30 133.337 28.264 133.337 25.1V18.184H130.845V15.3H132.497C133.141 15.3 133.561 14.88 133.561 14.18V11.212H136.977V15.272H141.037V18.184H136.977V24.96C136.977 26.192 137.593 26.976 138.993 26.976H140.953V30H138.237ZM150.151 30.364C146.035 30.364 143.207 27.284 143.207 22.72C143.207 18.1 146.007 14.908 150.039 14.908C152.587 14.908 154.015 16.42 154.519 17.176H154.715V15.272H158.355V30H154.771V28.124H154.575C154.155 28.74 152.839 30.364 150.151 30.364ZM150.851 27.088C153.287 27.088 154.799 25.128 154.799 22.664C154.799 19.892 153.119 18.212 150.823 18.212C148.499 18.212 146.903 20.06 146.903 22.664C146.903 25.324 148.499 27.088 150.851 27.088Z" fill="#1C2230"/>
<path d="M42 37.7988C41.9999 40.1228 40.3618 41.0805 38.3408 39.9424L24.6777 32.2568L42 18.376V37.7988ZM25.2041 0C34.4847 0 42.0052 7.52017 42 16.8008V17.8486L20.9971 30.1875L3.65918 39.9414C1.63828 41.0742 0.000203598 40.1174 0 37.7988V4.20117C0.00022881 1.88265 1.88265 0.000229065 4.20117 0H25.2041Z" fill="#1C2230"/>
</svg>
