<svg width="116" height="30" viewBox="0 0 116 30" fill="none" xmlns="http://www.w3.org/2000/svg">
<g clip-path="url(#clip0_569_651)">
<path d="M42.0218 18.8901V26.2284C42.0226 26.423 42.0131 26.6176 41.9933 26.8113C41.971 27.1046 41.8651 27.3853 41.6881 27.6202C41.511 27.855 41.2703 28.0342 40.9945 28.1363C39.3555 28.8392 37.6333 29.3297 35.8699 29.5958C34.4908 29.7975 33.0953 29.863 31.7034 29.7915C30.3237 29.7381 28.9649 29.4371 27.6918 28.9028C26.5534 28.4388 25.5278 27.7362 24.6839 26.8424C23.84 25.9485 23.1974 24.8842 22.7996 23.7211C21.7695 20.963 21.6891 17.9401 22.5713 15.1312C23.7169 11.4621 26.2404 9.27688 29.9463 8.39221C31.2957 8.10312 32.6801 8.01248 34.0557 8.12313C36.3382 8.25646 38.5872 8.73621 40.7254 9.54595C41.7039 9.92102 42.0218 10.3287 42.0218 11.3928V18.8901ZM36.5834 18.9757V14.7439C36.6173 14.4824 36.5526 14.2176 36.4019 14.0013C36.2511 13.7849 36.0251 13.6325 35.768 13.5739C35.6334 13.5209 35.4908 13.4882 35.3603 13.4475C34.4978 13.2167 33.6071 13.1083 32.7144 13.1254C30.1786 13.1458 28.4215 14.4504 27.8222 16.7946C27.4243 18.2755 27.4455 19.8379 27.8834 21.3076C28.0976 22.166 28.5597 22.9423 29.2122 23.5397C29.8647 24.1371 30.6787 24.5291 31.5525 24.6669C32.9803 24.916 34.4481 24.7967 35.8169 24.3204C36.4244 24.1247 36.6323 23.8026 36.6323 23.1422C36.5942 21.7506 36.5738 20.3577 36.5711 18.9634L36.5834 18.9757ZM91.111 18.9675C91.1481 20.9052 90.7071 22.8221 89.8268 24.5487C88.2491 27.5329 85.75 29.2126 82.4314 29.6896C80.6461 29.9628 78.822 29.8233 77.0989 29.2819C75.6039 28.8445 74.2408 28.0432 73.1316 26.9496C72.0224 25.856 71.2017 24.5044 70.7431 23.0158C69.7949 20.2924 69.8281 17.3232 70.8369 14.6216C72.2434 10.822 75.0442 8.69797 79.0395 8.17613C80.8508 7.92316 82.6965 8.10912 84.4209 8.71835C87.8455 9.9414 89.8961 12.3875 90.7767 15.8854C91.0142 16.8952 91.1265 17.9303 91.111 18.9675ZM80.5398 13.0724C79.572 13.0383 78.6186 13.3141 77.8185 13.8597C77.0185 14.4053 76.4136 15.1922 76.092 16.1056C75.8227 16.837 75.6686 17.6058 75.6353 18.3845C75.5328 19.6007 75.7171 20.8239 76.1735 21.9558C76.4258 22.6027 76.8289 23.1799 77.3495 23.6395C77.87 24.099 78.4927 24.4275 79.1659 24.5976C79.511 24.686 79.8628 24.746 80.2177 24.777C81.2637 24.9304 82.3302 24.7094 83.2291 24.1529C84.1279 23.5965 84.8013 22.7403 85.1303 21.7357C85.7926 19.937 85.7926 17.9613 85.1303 16.1626C84.898 15.4564 84.4868 14.8223 83.9366 14.3222C83.3865 13.8221 82.7162 13.473 81.9911 13.3089C81.506 13.1825 81.0168 13.1458 80.5398 13.0724ZM47.0853 19.7788V11.5151V11.0258C47.0922 10.6989 47.2012 10.3824 47.3972 10.1206C47.5931 9.85887 47.8661 9.66504 48.1779 9.56633C50.2405 8.83578 52.3868 8.36735 54.5663 8.17206C56.1321 8.02513 57.7097 8.06207 59.2669 8.28213C60.2792 8.42298 61.2654 8.71143 62.194 9.13827C63.1994 9.58586 64.0723 10.2851 64.7286 11.1685C65.3849 12.0519 65.8024 13.0895 65.9406 14.1813C66.0324 14.7405 66.0774 15.3065 66.0752 15.8732V28.5155C66.0752 29.1025 65.7939 29.3879 65.215 29.392H61.5173C61.4031 29.405 61.2874 29.3925 61.1786 29.3556C61.0698 29.3186 60.9705 29.258 60.8879 29.1781C60.8053 29.0982 60.7414 29.001 60.7007 28.8935C60.6601 28.786 60.6438 28.6708 60.653 28.5562V28.0711V16.8842C60.6517 16.4639 60.6094 16.0447 60.5266 15.6327C60.4391 15.1678 60.235 14.7327 59.9333 14.3684C59.6317 14.004 59.2425 13.7222 58.8021 13.5494C58.3413 13.3499 57.8537 13.2194 57.3548 13.1621C56.0955 13.0324 54.8233 13.1248 53.596 13.4352C53.4061 13.4788 53.2215 13.5431 53.0456 13.6269C52.8946 13.6937 52.7662 13.8028 52.6758 13.9409C52.5854 14.0791 52.5368 14.2404 52.536 14.4055V28.5603C52.5412 28.6736 52.5228 28.7867 52.4818 28.8924C52.4408 28.9982 52.3782 29.0942 52.298 29.1744C52.2179 29.2546 52.1218 29.3172 52.0161 29.3581C51.9103 29.3991 51.7972 29.4176 51.6839 29.4124H51.0031C50.1103 29.4124 49.2175 29.3838 48.3287 29.4124C47.44 29.4409 47.0771 29.1392 47.1057 28.1893C47.1016 25.3885 47.0853 22.5837 47.0853 19.7788ZM15.9953 29.4001H14.1975C13.5289 29.4001 13.3372 29.1188 13.4881 28.4706C13.6007 28.0324 13.673 27.5848 13.7042 27.1334C13.7405 26.5731 13.6267 26.0132 13.3744 25.5115C13.1222 25.0099 12.7406 24.5846 12.2691 24.2796C11.5602 23.7918 10.7787 23.4189 9.95347 23.1748C8.61219 22.7671 7.26276 22.3594 5.92148 21.9151C4.83455 21.5834 3.79975 21.1003 2.84755 20.48C2.06668 19.9771 1.4231 19.2879 0.97476 18.4745C0.526417 17.6611 0.287373 16.749 0.279146 15.8202C0.128303 12.4201 1.96288 9.88025 5.00827 8.69797C6.54179 8.11779 8.1766 7.85295 9.81486 7.91929C12.3003 7.94919 14.7512 8.50495 17.0064 9.55003C17.3285 9.70087 17.6465 9.86394 17.9563 10.0392C18.0975 10.0954 18.2251 10.1811 18.3305 10.2905C18.436 10.3999 18.5168 10.5305 18.5678 10.6737C18.6187 10.8168 18.6385 10.9692 18.6259 11.1206C18.6132 11.272 18.5684 11.419 18.4944 11.5518C18.3803 11.8371 18.2417 12.1103 18.1112 12.3916C17.8381 12.9786 17.5364 13.5535 17.2958 14.1528C16.9167 15.0864 16.1421 15.1761 15.445 14.7765C14.3926 14.1665 13.2664 13.6938 12.0938 13.37C10.6963 12.9329 9.21059 12.8586 7.77644 13.1539C7.35239 13.2532 6.94841 13.4242 6.58193 13.6595C6.3485 13.7956 6.15361 13.9889 6.01566 14.2213C5.87771 14.4536 5.80125 14.7173 5.7935 14.9874C5.78575 15.2575 5.84696 15.5251 5.97136 15.765C6.09575 16.0049 6.27923 16.2091 6.50447 16.3583C6.96282 16.6904 7.46858 16.9516 8.00475 17.1329C9.26041 17.561 10.5405 17.9157 11.8125 18.303C13.013 18.6412 14.1766 19.0987 15.286 19.6687C15.9893 20.0404 16.6394 20.5053 17.2184 21.0508C18.3095 22.1012 18.9988 23.5001 19.1671 25.0053C19.2965 25.988 19.262 26.9854 19.0652 27.9569C19.0117 28.1996 18.9451 28.4391 18.8654 28.6745C18.8099 28.8981 18.6763 29.0946 18.4887 29.2284C18.301 29.3623 18.0717 29.4246 17.8421 29.4042H15.9953V29.4001ZM100.618 8.4982H105.747C106.415 8.4982 106.676 8.76727 106.693 9.44811V12.0736C106.693 12.8604 106.456 13.1009 105.682 13.105H100.569C100.569 13.3415 100.549 13.5453 100.549 13.7492V28.5766C100.553 28.6869 100.534 28.7969 100.493 28.8994C100.452 29.0019 100.39 29.0946 100.311 29.1715C100.232 29.2484 100.137 29.3078 100.033 29.3458C99.9297 29.3837 99.8192 29.3995 99.709 29.392H96.2111C95.4161 29.392 95.1593 29.1311 95.1593 28.3442V14.3525V8.64497C95.1603 7.67236 95.285 6.70382 95.5303 5.76265C96.3008 2.85587 98.1721 1.07429 101.091 0.409765C102.775 0.0369142 104.52 0.0369142 106.203 0.409765L106.391 0.45461C107.109 0.642145 107.284 0.927523 107.145 1.67766L106.717 3.91992V3.96476C106.566 4.69859 106.309 4.88205 105.559 4.78013C105.257 4.72471 104.952 4.68525 104.646 4.6619C104.066 4.62712 103.484 4.63939 102.905 4.69859C102.359 4.75433 101.846 4.98868 101.447 5.36533C101.048 5.74197 100.783 6.23987 100.696 6.78186C100.565 7.3444 100.539 7.92617 100.618 8.4982ZM115.205 18.9594V28.3361C115.205 29.1514 114.96 29.392 114.121 29.3961H110.721C110.06 29.3961 109.783 29.1066 109.758 28.4462V9.77833V9.33803C109.755 9.22391 109.776 9.11039 109.82 9.00482C109.863 8.89926 109.928 8.804 110.011 8.72521C110.093 8.64643 110.192 8.58588 110.299 8.54747C110.407 8.50907 110.521 8.49367 110.635 8.50228H114.231C114.932 8.50228 115.197 8.77135 115.197 9.48072C115.205 12.6416 115.208 15.8012 115.205 18.9594Z" fill="#1C2230"/>
<path d="M5.73739 26.9256C5.7007 27.1825 5.67623 27.4393 5.62731 27.6921C5.52574 28.2554 5.2323 28.7663 4.79681 29.1379C4.36132 29.5095 3.81064 29.7188 3.23829 29.7305C2.86667 29.7541 2.49356 29.7266 2.12939 29.6489C1.56249 29.5626 1.04319 29.282 0.66024 28.8551C0.277286 28.4283 0.0544518 27.8817 0.0298202 27.3088C0.000224445 26.8727 0.0345612 26.4345 0.131741 26.0083C0.235205 25.537 0.479196 25.1082 0.831492 24.7784C1.18379 24.4487 1.62781 24.2336 2.10493 24.1615C2.66129 24.0455 3.23738 24.0651 3.78458 24.2186C5.02802 24.5488 5.70885 25.5191 5.73739 26.9256ZM112.55 5.87692C112.26 5.85995 111.972 5.82454 111.686 5.77093C111.117 5.65767 110.604 5.34861 110.239 4.89736C109.873 4.4461 109.677 3.88111 109.684 3.30037C109.668 2.8966 109.704 2.49243 109.79 2.0977C109.905 1.6066 110.172 1.16415 110.552 0.833311C110.933 0.502472 111.408 0.300094 111.91 0.254971C112.328 0.206881 112.751 0.217861 113.166 0.287586C113.784 0.372281 114.349 0.684518 114.749 1.16326C115.149 1.64201 115.357 2.25285 115.331 2.87637C115.338 3.26415 115.291 3.65104 115.192 4.02604C114.956 4.95964 114.112 5.89731 112.55 5.87692Z" fill="#1C2230"/>
</g>
<defs>
<clipPath id="clip0_569_651">
<rect width="115.385" height="30" fill="white"/>
</clipPath>
</defs>
</svg>
