<svg width="22" height="22" viewBox="0 0 22 22" fill="none" xmlns="http://www.w3.org/2000/svg">
<path fill-rule="evenodd" clip-rule="evenodd" d="M10.9997 0C4.9272 0 0 4.9272 0 10.9997C0 17.0722 4.9272 21.9994 10.9997 21.9994C17.0603 21.9994 21.9994 17.0722 21.9994 10.9997C21.9994 4.9272 17.0603 0 10.9997 0ZM18.2652 5.07036C19.5775 6.66901 20.365 8.70908 20.3888 10.9162C20.0786 10.8566 16.9767 10.2242 13.851 10.6179C13.7795 10.4628 13.7198 10.2958 13.6482 10.1288C13.4573 9.67547 13.2426 9.21019 13.0278 8.76875C16.4876 7.361 18.0624 5.33283 18.2652 5.07036ZM10.9997 1.62252C13.3857 1.62252 15.569 2.51729 17.2273 3.98471C17.0603 4.22331 15.6405 6.12022 12.3001 7.37289C10.7611 4.54543 9.05509 2.23096 8.79261 1.87305C9.49645 1.70603 10.2362 1.62252 10.9997 1.62252ZM7.00309 2.50535C7.25361 2.8394 8.92385 5.1658 10.4867 7.9336C6.09636 9.1028 2.21903 9.07894 1.80147 9.07894C2.40991 6.16794 4.3784 3.7461 7.00309 2.50535ZM1.59865 11.0117C1.59865 10.9162 1.59865 10.8207 1.59865 10.7253C2.00428 10.7372 6.56164 10.7969 11.2502 9.38914C11.5247 9.91403 11.7752 10.4509 12.0138 10.9877C11.8945 11.0236 11.7632 11.0594 11.6439 11.0951C6.80025 12.658 4.22331 16.929 4.00856 17.2869C2.51728 15.6286 1.59865 13.4216 1.59865 11.0117ZM10.9997 20.4007C8.82836 20.4007 6.82411 19.6611 5.23738 18.4203C5.40441 18.0744 7.31322 14.3998 12.6103 12.5507C12.6341 12.5387 12.6461 12.5387 12.6699 12.5268C13.9942 15.9507 14.5311 18.8259 14.6742 19.6491C13.5408 20.1382 12.3001 20.4007 10.9997 20.4007ZM16.2371 18.7902C16.1416 18.2175 15.6405 15.4735 14.4117 12.0973C17.3586 11.632 19.9354 12.3956 20.2576 12.5029C19.852 15.1156 18.3487 17.3704 16.2371 18.7902Z" fill="#1C2230"/>
</svg>
